<svg id="background" xmlns="http://www.w3.org/2000/svg" viewBox="0 0 33.2 7.72"><defs><style>.cls-1{fill:#fff;}.cls-2{fill:#16b89d;}</style></defs><path class="cls-1" d="M15.12,4.38s-.07.1-.19.1h-.84c-.12,0-.19-.06-.19-.1V2.26h-.74V4.38a.89.89,0,0,0,.93.84h.84a.89.89,0,0,0,.93-.84V2.26h-.74Z"/><path class="cls-1" d="M28.72,2.26h-.84A.89.89,0,0,0,27,3.1V4.38a.89.89,0,0,0,.93.84h.84a.88.88,0,0,0,.92-.84V3.1A.88.88,0,0,0,28.72,2.26Zm.19,2.12s-.08.1-.19.1h-.84c-.12,0-.19-.06-.19-.1V3.1s.07-.1.19-.1h.84c.11,0,.19.06.19.1Z"/><path class="cls-1" d="M22,1H20.84a1.11,1.11,0,0,0-1.11,1.1V2.2a.91.91,0,0,0,.58.86l1.92.77a.2.2,0,0,1,.12.18v.11a.37.37,0,0,1-.38.36H20.84a.37.37,0,0,1-.38-.36V3.63h-.73v.49a1.11,1.11,0,0,0,1.11,1.1H22a1.11,1.11,0,0,0,1.11-1.1V4a.94.94,0,0,0-.58-.87l-1.92-.76a.2.2,0,0,1-.12-.18V2.09a.38.38,0,0,1,.38-.37H22a.38.38,0,0,1,.38.37v.49h.73V2.09A1.11,1.11,0,0,0,22,1Z"/><path class="cls-1" d="M18.21,2.26h-.84a.89.89,0,0,0-.93.84V4.38a.89.89,0,0,0,.93.84h.84l.19,0v.61a.19.19,0,0,1-.19.19h-1.4v.73h1.4a.93.93,0,0,0,.93-.92V3.1A.89.89,0,0,0,18.21,2.26Zm.19,2.12s-.07.1-.19.1h-.84c-.12,0-.19-.06-.19-.1V3.1s.07-.1.19-.1h.84c.12,0,.19.06.19.1V4.38Z"/><path class="cls-1" d="M25.44,2.26H24.6l-.19,0V1h-.74V5.22h.74v-2A.19.19,0,0,1,24.6,3h.84a.2.2,0,0,1,.19.2v2h.73v-2A.93.93,0,0,0,25.44,2.26Z"/><path class="cls-1" d="M31,3.1V3h1V2.26H31V1h-.74v3.4a.89.89,0,0,0,.93.84H32V4.48h-.84c-.12,0-.19-.06-.19-.1V3.1Z"/><path class="cls-1" d="M11.47,1H9.22V5.21h2.25a1.11,1.11,0,0,0,1.11-1.1V3.83a1.06,1.06,0,0,0-.29-.73,1.09,1.09,0,0,0,.29-.74V2.09A1.11,1.11,0,0,0,11.47,1Zm0,.74a.36.36,0,0,1,.37.37v.27a.36.36,0,0,1-.37.37H10v-1Zm.37,2.39a.37.37,0,0,1-.37.37H10v-1h1.52a.36.36,0,0,1,.37.36Z"/><path class="cls-2" d="M5.15,3.6a1,1,0,0,0-.78-.77v.5H3.9v-.5a1,1,0,0,0-.78.77h.5v.48h-.5a1.05,1.05,0,0,0,.78.78v-.5h.47v.5a1.05,1.05,0,0,0,.78-.78h-.5V3.6Z"/><path class="cls-2" d="M4.37,2.34A1.54,1.54,0,0,1,5.64,3.6h.53V3.05L7,2.22a.23.23,0,0,0,0-.34L6.1,1l-.34.34.73.73-.56.56L5.2,1.88A.26.26,0,0,0,5,1.81H4.37Z"/><path class="cls-2" d="M6.17,4.64V4.08H5.64A1.53,1.53,0,0,1,4.37,5.34v.54H5a.26.26,0,0,0,.17-.07l.73-.73.56.56-.73.72.34.34L7,5.81a.23.23,0,0,0,0-.34Z"/><path class="cls-2" d="M3.9,5.34A1.53,1.53,0,0,1,2.63,4.08H2.1v.56l-.82.83a.23.23,0,0,0,0,.34l.89.89.34-.34-.73-.72.56-.56.73.73a.24.24,0,0,0,.17.07H3.9Z"/><path class="cls-2" d="M2.1,3.05V3.6h.53A1.54,1.54,0,0,1,3.9,2.34V1.81H3.24a.24.24,0,0,0-.17.07l-.73.73-.56-.56.73-.73L2.17,1l-.89.9a.23.23,0,0,0,0,.34Z"/></svg>