<svg xmlns="http://www.w3.org/2000/svg" width="28" height="28" viewBox="0 0 28 28">
  <g id="icn_yt" transform="translate(-0.091)">
    <circle id="Ellipse_32" data-name="Ellipse 32" cx="14" cy="14" r="14" transform="translate(0.091)" fill="#15be80"/>
    <path id="Path_160" data-name="Path 160" d="M849.316,119.78c1.465,0,2.93-.006,4.4,0a2.727,2.727,0,0,1,2.778,2.164,3.425,3.425,0,0,1,.069.722q.009,2.305,0,4.611a2.746,2.746,0,0,1-2.879,2.884q-4.4.009-8.791,0a2.748,2.748,0,0,1-2.877-2.887q0-2.305,0-4.611a2.749,2.749,0,0,1,2.879-2.884c1.474-.006,2.948,0,4.423,0m-1.918,2.978v4.429l3.806-2.209-3.806-2.22" transform="translate(-835.103 -111.142)" fill="#fff"/>
  </g>
</svg>
