<svg id="icn_fb" xmlns="http://www.w3.org/2000/svg" width="28" height="28" viewBox="0 0 28 28">
  <g id="Group_6" data-name="Group 6">
    <circle id="Ellipse_34" data-name="Ellipse 34" cx="14" cy="14" r="14" fill="#15be80"/>
    <path id="Path_158" data-name="Path 158" d="M142.354,99.062v.364q0,2.7,0,5.394c0,.51-.066.578-.571.58-.674,0-1.349,0-2.023,0-.4,0-.473-.083-.473-.476q0-2.751,0-5.5v-.35h-1.532c-.656,0-.668-.012-.668-.659,0-.62,0-1.241,0-1.861,0-.37.094-.46.465-.461.565,0,1.131,0,1.733,0,0-.429-.011-.839,0-1.249a7.587,7.587,0,0,1,.088-1.286,3.18,3.18,0,0,1,3.167-2.675c.672-.041,1.348-.013,2.022-.016a.339.339,0,0,1,.379.386q0,1.025.006,2.05c0,.255-.124.373-.383.374q-.715,0-1.429.03c-.549.02-.765.243-.77.785,0,.52,0,1.04,0,1.6h1.112c.333,0,.665,0,1,0,.277.005.373.1.375.377.005.746,0,1.492,0,2.238,0,.249-.119.36-.364.359-.611,0-1.223,0-1.834,0h-.3" transform="translate(-127.586 -83.948)" fill="#fff"/>
  </g>
</svg>
