<svg xmlns="http://www.w3.org/2000/svg" width="28" height="28" viewBox="0 0 28 28">
  <g id="icn_insta" transform="translate(0.455)">
    <circle id="Ellipse_33" data-name="Ellipse 33" cx="14" cy="14" r="14" transform="translate(-0.455)" fill="#7a2ee6"/>
    <g id="Group_5" data-name="Group 5" transform="translate(6.045 6.045)">
      <path id="Path_146" data-name="Path 146" d="M1436.68,81.194c1.311.049,2.625.05,3.931.158a4.166,4.166,0,0,1,3.89,3.878,16.648,16.648,0,0,1,.1,1.668c0,1.888,0,3.776-.049,5.664a4.472,4.472,0,0,1-1.365,3.3,4.408,4.408,0,0,1-3.05,1.172c-2.3.035-4.6.045-6.9,0a4.265,4.265,0,0,1-3.66-1.886,4.544,4.544,0,0,1-.754-2.523c-.026-2.3-.043-4.6,0-6.9a4.261,4.261,0,0,1,1.886-3.66,4.728,4.728,0,0,1,2.577-.759c1.132-.027,2.264-.006,3.4-.006,0-.032,0-.064,0-.1m-6.527,7.94c.035,1.221.037,2.418.11,3.61a2.759,2.759,0,0,0,2.833,2.831q3.595.1,7.194,0a2.72,2.72,0,0,0,2.8-2.8q.095-3.6,0-7.2a2.723,2.723,0,0,0-2.81-2.817c-2.263-.072-4.528-.047-6.792-.045a3.7,3.7,0,0,0-1.746.393,2.743,2.743,0,0,0-1.47,2.418c-.075,1.21-.08,2.425-.115,3.612" transform="translate(-1428.789 -81.194)" fill="#fff"/>
      <path id="Path_148" data-name="Path 148" d="M1485.868,135.352a4.07,4.07,0,1,1-4.063,4.062,4.063,4.063,0,0,1,4.063-4.062m2.649,4.056a2.643,2.643,0,1,0-2.622,2.656,2.646,2.646,0,0,0,2.622-2.656" transform="translate(-1477.984 -131.449)" fill="#fff"/>
      <path id="Path_149" data-name="Path 149" d="M1584.823,121.813a.947.947,0,1,1,.946-.936.939.939,0,0,1-.946.936" transform="translate(-1572.697 -117.127)" fill="#fff"/>
    </g>
  </g>
</svg>
