<svg xmlns="http://www.w3.org/2000/svg" width="169.746" height="31.828" viewBox="0 0 169.746 31.828">
  <g id="Logo_BugShot-white" transform="translate(-18.167 -19)">
    <g id="Group_1" data-name="Group 1" transform="translate(61.812 19)">
      <path id="Path_133" data-name="Path 133" d="M423.149,294.486c0,.19-.413.553-1.06.553h-4.643c-.647,0-1.06-.363-1.06-.553v-11.7h-4.071v11.7a4.9,4.9,0,0,0,5.131,4.607h4.643a4.9,4.9,0,0,0,5.131-4.607v-11.7h-4.071Z" transform="translate(-390.476 -275.748)" fill="#fff"/>
      <path id="Path_134" data-name="Path 134" d="M685.478,282.784h-4.643a4.9,4.9,0,0,0-5.131,4.607v7.1a4.9,4.9,0,0,0,5.131,4.607h4.643a4.9,4.9,0,0,0,5.131-4.607v-7.1A4.9,4.9,0,0,0,685.478,282.784Zm1.06,11.7c0,.19-.413.553-1.06.553h-4.643c-.647,0-1.06-.363-1.06-.553v-7.1c0-.19.413-.553,1.06-.553h4.643c.647,0,1.06.363,1.06.553Z" transform="translate(-577.539 -275.748)" fill="#fff"/>
      <path id="Path_135" data-name="Path 135" d="M550.066,258.481h-6.219a6.14,6.14,0,0,0-6.181,6.084v.608a5.085,5.085,0,0,0,3.231,4.747l10.612,4.213a1.051,1.051,0,0,1,.667.981v.607a2.073,2.073,0,0,1-2.11,2.03h-6.219a2.073,2.073,0,0,1-2.11-2.03v-2.7h-4.071v2.7a6.14,6.14,0,0,0,6.181,6.084h6.219a6.14,6.14,0,0,0,6.181-6.084v-.607a5.085,5.085,0,0,0-3.231-4.747L542.4,266.153a1.05,1.05,0,0,1-.667-.981v-.608a2.073,2.073,0,0,1,2.11-2.029h6.219a2.073,2.073,0,0,1,2.11,2.029v2.7h4.071v-2.7A6.14,6.14,0,0,0,550.066,258.481Z" transform="translate(-479.503 -258.459)" fill="#fff"/>
      <path id="Path_136" data-name="Path 136" d="M484.765,282.784h-4.644a4.9,4.9,0,0,0-5.131,4.607v7.1a4.9,4.9,0,0,0,5.131,4.607h4.644a5.718,5.718,0,0,0,1.06-.1v3.341a1.059,1.059,0,0,1-1.06,1.056h-7.739v4.055h7.739a5.127,5.127,0,0,0,5.131-5.11V287.391A4.9,4.9,0,0,0,484.765,282.784Zm1.06,11.7c0,.19-.413.553-1.06.553h-4.644c-.647,0-1.06-.363-1.06-.553v-7.1c0-.19.413-.553,1.06-.553h4.644c.647,0,1.06.363,1.06.553v7.1Z" transform="translate(-434.99 -275.748)" fill="#fff"/>
      <path id="Path_137" data-name="Path 137" d="M622.8,265.44h-4.643a5.1,5.1,0,0,0-1.06.111V258.4h-4.071v23.346H617.1V270.6a1.087,1.087,0,0,1,1.06-1.109H622.8a1.086,1.086,0,0,1,1.06,1.109v11.124h4.071V270.6A5.153,5.153,0,0,0,622.8,265.44Z" transform="translate(-533.026 -258.404)" fill="#fff"/>
      <path id="Path_138" data-name="Path 138" d="M742.451,270.047v-.553h5.7V265.44h-5.7V258.4H738.38v18.739a4.9,4.9,0,0,0,5.131,4.607h4.644V277.7h-4.644c-.647,0-1.06-.363-1.06-.553v-7.1Z" transform="translate(-622.053 -258.404)" fill="#fff"/>
      <path id="Path_139" data-name="Path 139" d="M349.428,258.4H336.953v23.323h12.475a6.1,6.1,0,0,0,6.106-6.082V274.12a6.042,6.042,0,0,0-1.56-4.054,6.043,6.043,0,0,0,1.56-4.055v-1.525A6.1,6.1,0,0,0,349.428,258.4Zm0,4.054a2.034,2.034,0,0,1,2.035,2.027v1.525a2.034,2.034,0,0,1-2.035,2.027h-8.4v-5.58Zm2.035,13.187a2.034,2.034,0,0,1-2.035,2.027h-8.4v-5.58h8.4a2.034,2.034,0,0,1,2.035,2.027Z" transform="translate(-336.953 -258.404)" fill="#fff"/>
    </g>
    <g id="Group_2" data-name="Group 2" transform="translate(18.167 19)">
      <path id="Path_140" data-name="Path 140" d="M231.739,297.961a5.817,5.817,0,0,0-4.312-4.312v2.791h-2.662v-2.791a5.816,5.816,0,0,0-4.312,4.312h2.791v2.662h-2.791a5.815,5.815,0,0,0,4.312,4.312v-2.791h2.662v2.791a5.816,5.816,0,0,0,4.312-4.312h-2.791v-2.662Z" transform="translate(-209.793 -283.378)" fill="#18d992"/>
      <path id="Path_141" data-name="Path 141" d="M244.385,265.963a8.481,8.481,0,0,1,7.024,7.024h2.957v-3.109l4.6-4.6a1.331,1.331,0,0,0,0-1.882l-4.991-4.991-1.882,1.882,4.05,4.05-3.109,3.109-4.05-4.05a1.33,1.33,0,0,0-.941-.39h-3.66Z" transform="translate(-226.751 -258.404)" fill="#18d992"/>
      <path id="Path_142" data-name="Path 142" d="M254.367,320.69v-3.109h-2.957a8.48,8.48,0,0,1-7.024,7.024v2.957h3.66a1.331,1.331,0,0,0,.941-.39l4.05-4.05,3.109,3.109-4.05,4.05,1.882,1.883,4.991-4.991a1.331,1.331,0,0,0,0-1.883Z" transform="translate(-226.751 -300.336)" fill="#18d992"/>
      <path id="Path_143" data-name="Path 143" d="M198.842,324.605a8.48,8.48,0,0,1-7.024-7.024h-2.958v3.109l-4.6,4.6a1.332,1.332,0,0,0,0,1.883l4.991,4.991,1.882-1.883-4.05-4.05,3.109-3.109,4.05,4.05a1.332,1.332,0,0,0,.941.39h3.66Z" transform="translate(-183.87 -300.336)" fill="#18d992"/>
      <path id="Path_144" data-name="Path 144" d="M188.861,269.878v3.109h2.958a8.48,8.48,0,0,1,7.024-7.024v-2.958h-3.66a1.331,1.331,0,0,0-.941.39l-4.05,4.05-3.109-3.109,4.05-4.05L189.25,258.4l-4.991,4.991a1.331,1.331,0,0,0,0,1.882Z" transform="translate(-183.87 -258.404)" fill="#18d992"/>
    </g>
  </g>
</svg>
